<?xml version="1.0" encoding="UTF-8" standalone="no"?><!DOCTYPE svg PUBLIC "-//W3C//DTD SVG 1.1//EN" "http://www.w3.org/Graphics/SVG/1.1/DTD/svg11.dtd"><svg width="100%" height="100%" viewBox="0 0 1200 1200" version="1.1" xmlns="http://www.w3.org/2000/svg" xmlns:xlink="http://www.w3.org/1999/xlink" xml:space="preserve" xmlns:serif="http://www.serif.com/" style="fill-rule:evenodd;clip-rule:evenodd;stroke-linejoin:round;stroke-miterlimit:2;"><rect id="MicroPythonOS-logo-symbol-black-short" x="0" y="0" width="1200" height="1200" style="fill:#fff;fill-opacity:0;"/><path d="M1082.316,600c0,266.197 -216.118,482.316 -482.316,482.316c-266.197,0 -482.316,-216.118 -482.316,-482.316c0,-266.197 216.118,-482.316 482.316,-482.316c40.043,0 78.953,4.89 116.164,14.106c37.951,-18.526 93.314,-19.492 148.131,1.209c78.844,29.775 120.586,127.255 118.169,147.975c-2.417,20.72 -101.4,-53.656 -132.671,-23.653c-22.302,21.397 1.649,79.482 -8.74,92.671c-7.552,9.588 -35.575,-6.732 -53.592,-13.536c-49.592,-18.728 -87.797,-51.059 -106.648,-85.92c-25.976,-5.992 -53.028,-9.159 -80.813,-9.159c-197.929,0 -358.622,160.693 -358.622,358.622c0,197.929 160.693,358.622 358.622,358.622c197.929,0 358.622,-160.693 358.622,-358.622c0,-77.508 -24.434,-234.995 -3.819,-234.995c8.222,0 127.574,71.818 127.512,234.995Zm-243.774,-427.688c-10.041,9.634 -10.323,25.603 -0.63,35.639c9.693,10.036 25.715,10.363 35.756,0.729c10.041,-9.634 10.323,-25.603 0.63,-35.639c-9.693,-10.036 -25.715,-10.363 -35.756,-0.729Z"/></svg>