<?xml version="1.0" encoding="UTF-8" standalone="no"?><!DOCTYPE svg PUBLIC "-//W3C//DTD SVG 1.1//EN" "http://www.w3.org/Graphics/SVG/1.1/DTD/svg11.dtd"><svg width="100%" height="100%" viewBox="0 0 11201 2500" version="1.1" xmlns="http://www.w3.org/2000/svg" xmlns:xlink="http://www.w3.org/1999/xlink" xml:space="preserve" xmlns:serif="http://www.serif.com/" style="fill-rule:evenodd;clip-rule:evenodd;stroke-linejoin:round;stroke-miterlimit:2;"><rect id="MicroPythonOS-logo-white-alpha--long" serif:id="MicroPythonOS-logo-white(alpha)-long" x="0.655" y="0" width="11200" height="2500" style="fill-opacity:0;"/><g><g><path d="M9870.52,1250c0,266.197 -216.118,482.316 -482.316,482.316c-266.197,0 -482.316,-216.118 -482.316,-482.316c0,-266.197 216.118,-482.316 482.316,-482.316c55.37,0 108.574,9.351 158.117,26.558l-51.095,113.404c-33.804,-10.571 -69.753,-16.268 -107.022,-16.268c-197.929,0 -358.622,160.693 -358.622,358.622c0,197.929 160.693,358.622 358.622,358.622c197.929,0 358.622,-160.693 358.622,-358.622l123.694,-0Z" style="fill:#fff;"/><path d="M9870.52,1250c-41.152,0 -78.146,-0 -123.694,-0c0,-77.508 -24.434,-234.995 -3.819,-234.995c8.222,0 127.574,71.818 127.512,234.995Z" style="fill:#fff;"/><path d="M9629.258,999.993c-7.552,9.588 -35.575,-6.732 -53.592,-13.536c-84.587,-31.944 -136.046,-103.461 -114.843,-159.607c21.203,-56.146 107.091,-75.795 191.677,-43.851c78.844,29.775 120.586,127.255 118.169,147.975c-2.417,20.72 -101.4,-53.656 -132.671,-23.653c-22.302,21.397 1.649,79.482 -8.74,92.671Zm-2.512,-177.681c-10.041,9.634 -10.323,25.603 -0.63,35.639c9.693,10.036 25.715,10.363 35.756,0.729c10.041,-9.634 10.323,-25.603 0.63,-35.639c-9.693,-10.036 -25.715,-10.363 -35.756,-0.729Z" style="fill:#fff;"/></g><path d="M10278.489,1732.316c-62.234,0 -117.929,-11.049 -167.086,-33.147c-49.156,-22.098 -87.714,-52.764 -115.675,-91.999c-27.96,-39.235 -42.391,-84.557 -43.293,-135.968l131.233,0c4.51,44.195 22.774,81.401 54.793,111.616c32.019,30.215 78.695,45.323 140.027,45.323c58.627,0 104.851,-14.657 138.674,-43.97c33.823,-29.313 50.734,-66.97 50.734,-112.969c0,-36.078 -9.921,-65.391 -29.764,-87.94c-19.843,-22.549 -44.646,-39.686 -74.411,-51.411c-29.764,-11.725 -69.901,-24.353 -120.41,-37.882c-62.234,-16.235 -112.067,-32.47 -149.498,-48.705c-37.431,-16.235 -69.45,-41.715 -96.057,-76.44c-26.607,-34.725 -39.911,-81.401 -39.911,-140.027c0,-51.411 13.078,-96.959 39.235,-136.645c26.156,-39.686 62.911,-70.352 110.263,-91.999c47.352,-21.647 101.694,-32.47 163.027,-32.47c88.391,0 160.772,22.098 217.144,66.293c56.372,44.195 88.165,102.822 95.381,175.88l-135.292,0c-4.51,-36.078 -23.451,-67.871 -56.823,-95.381c-33.372,-27.509 -77.567,-41.264 -132.586,-41.264c-51.411,0 -93.351,13.304 -125.822,39.911c-32.47,26.607 -48.705,63.813 -48.705,111.616c0,34.274 9.696,62.234 29.088,83.881c19.392,21.647 43.293,38.107 71.705,49.382c28.411,11.274 68.322,24.127 119.733,38.558c62.234,17.137 112.292,34.048 150.174,50.734c37.882,16.686 70.352,42.391 97.41,77.116c27.058,34.725 40.588,81.852 40.588,141.38c0,45.999 -12.176,89.293 -36.529,129.88c-24.353,40.588 -60.43,73.509 -108.234,98.763c-47.803,25.254 -104.175,37.882 -169.115,37.882Z" style="fill:#fff;fill-rule:nonzero;"/><path d="M1564.715,767.684l0,964.632l-123.116,0l0,-719.292l-311.171,719.292l-86.587,0l-312.524,-720.686l0,720.686l-123.116,0l0,-964.632l132.586,0l346.347,797.354l346.347,-797.354l131.233,0Z" style="fill:#fff;fill-rule:nonzero;"/><path d="M4920.069,1050.015c0,80.271 -26.833,146.932 -80.499,199.985c-53.666,53.052 -135.517,79.579 -245.555,79.579l-181.291,0l0,402.737l-123.116,0l0,-964.632l304.407,0c106.43,0 187.379,26.296 242.849,78.887c55.47,52.591 83.205,120.406 83.205,203.445Zm-326.054,175.765c68.548,0 119.057,-15.224 151.527,-45.671c32.47,-30.447 48.705,-73.812 48.705,-130.094c0,-119.022 -66.744,-178.533 -200.232,-178.533l-181.291,0l0,354.298l181.291,0Z" style="fill:#fff;fill-rule:nonzero;"/><path d="M1834.611,870.853c-23.412,0 -43.221,-8.104 -59.43,-24.312c-16.208,-16.208 -24.312,-36.018 -24.312,-59.43c0,-23.412 8.104,-43.221 24.312,-59.43c16.208,-16.208 36.018,-24.312 59.43,-24.312c22.511,0 41.646,8.104 57.404,24.312c15.758,16.208 23.637,36.018 23.637,59.43c0,23.412 -7.879,43.221 -23.637,59.43c-15.758,16.208 -34.892,24.312 -57.404,24.312Zm59.43,120.21l0,740.168l-122.911,0l0,-740.168l122.911,0Z" style="fill:#fff;fill-rule:nonzero;"/><path d="M2057.472,1359.797c0,-76.538 15.308,-143.396 45.923,-200.575c30.615,-57.178 73.161,-101.525 127.638,-133.041c54.477,-31.516 116.833,-47.274 187.068,-47.274c90.945,0 165.908,22.061 224.887,66.183c58.979,44.122 97.924,105.352 116.833,183.691l-132.366,0c-12.606,-45.022 -37.143,-80.59 -73.612,-106.703c-36.468,-26.113 -81.716,-39.169 -135.743,-39.169c-70.235,0 -126.963,24.087 -170.185,72.261c-43.221,48.174 -64.832,116.383 -64.832,204.627c0,89.144 21.611,158.029 64.832,206.653c43.221,48.624 99.95,72.936 170.185,72.936c54.027,0 99.049,-12.606 135.067,-37.819c36.018,-25.213 60.78,-61.23 74.287,-108.054l132.366,0c-19.81,75.638 -59.43,136.193 -118.859,181.665c-59.43,45.473 -133.717,68.209 -222.861,68.209c-70.235,0 -132.591,-15.758 -187.068,-47.274c-54.477,-31.516 -97.023,-76.088 -127.638,-133.717c-30.615,-57.629 -45.923,-125.162 -45.923,-202.601Z" style="fill:#fff;fill-rule:nonzero;"/><path d="M3046.164,1111.273c21.611,-42.321 52.451,-75.187 92.521,-98.599c40.07,-23.412 88.919,-35.117 146.548,-35.117l0,126.963l-32.416,0c-137.769,0 -206.653,74.737 -206.653,224.212l0,402.5l-122.911,0l0,-740.168l122.911,0l0,120.21Z" style="fill:#fff;fill-rule:nonzero;"/><path d="M3749.864,1743.387c-69.334,0 -132.141,-15.758 -188.419,-47.274c-56.278,-31.516 -100.4,-76.313 -132.366,-134.392c-31.966,-58.079 -47.949,-125.387 -47.949,-201.925c0,-75.638 16.433,-142.496 49.3,-200.575c32.866,-58.079 77.664,-102.651 134.392,-133.717c56.728,-31.065 120.21,-46.598 190.445,-46.598c70.235,0 133.717,15.533 190.445,46.598c56.728,31.065 101.525,75.413 134.392,133.041c32.866,57.629 49.3,124.712 49.3,201.25c0,76.538 -16.883,143.847 -50.65,201.925c-33.767,58.079 -79.465,102.876 -137.093,134.392c-57.629,31.516 -121.56,47.274 -191.795,47.274Zm0,-108.054c44.122,0 85.543,-10.355 124.262,-31.065c38.719,-20.71 70.01,-51.776 93.872,-93.196c23.862,-41.421 35.793,-91.846 35.793,-151.275c0,-59.43 -11.706,-109.855 -35.117,-151.275c-23.412,-41.421 -54.027,-72.261 -91.846,-92.521c-37.819,-20.26 -78.789,-30.39 -122.911,-30.39c-45.022,0 -86.218,10.13 -123.586,30.39c-37.369,20.26 -67.308,51.1 -89.82,92.521c-22.511,41.421 -33.767,91.846 -33.767,151.275c0,60.33 11.03,111.205 33.091,152.626c22.061,41.421 51.551,72.261 88.469,92.521c36.918,20.26 77.439,30.39 121.56,30.39Z" style="fill:#fff;fill-rule:nonzero;"/><path d="M5711.039,991.063l-445.722,1088.641l-126.963,0l145.873,-356.577l-298.498,-732.064l136.418,0l232.316,599.698l229.614,-599.698l126.963,0Z" style="fill:#fff;fill-rule:nonzero;"/><path d="M5983.875,1092.364l0,436.267c0,36.018 7.654,61.456 22.961,76.313c15.308,14.857 41.871,22.286 79.69,22.286l90.495,0l0,104.002l-110.755,0c-68.434,0 -119.76,-15.758 -153.977,-47.274c-34.217,-31.516 -51.326,-83.291 -51.326,-155.327l0,-436.267l-95.898,0l0,-101.3l95.898,0l0,-186.393l122.911,0l0,186.393l193.146,0l0,101.3l-193.146,0Z" style="fill:#fff;fill-rule:nonzero;"/><path d="M6692.977,977.557c55.828,0 106.253,11.931 151.275,35.793c45.022,23.862 80.365,59.655 106.028,107.378c25.663,47.724 38.494,105.803 38.494,174.237l0,436.267l-121.56,0l0,-418.708c0,-73.837 -18.459,-130.34 -55.378,-169.509c-36.918,-39.169 -87.343,-58.754 -151.275,-58.754c-64.832,0 -116.383,20.26 -154.652,60.78c-38.269,40.52 -57.404,99.499 -57.404,176.938l0,409.254l-122.911,0l0,-999.497l122.911,0l0,364.681c24.312,-37.819 57.854,-67.083 100.625,-87.794c42.771,-20.71 90.72,-31.065 143.847,-31.065Z" style="fill:#fff;fill-rule:nonzero;"/><path d="M7512.835,1743.387c-69.334,0 -132.141,-15.758 -188.419,-47.274c-56.278,-31.516 -100.4,-76.313 -132.366,-134.392c-31.966,-58.079 -47.949,-125.387 -47.949,-201.925c0,-75.638 16.433,-142.496 49.3,-200.575c32.866,-58.079 77.664,-102.651 134.392,-133.717c56.728,-31.065 120.21,-46.598 190.445,-46.598c70.235,0 133.717,15.533 190.445,46.598c56.728,31.065 101.525,75.413 134.392,133.041c32.866,57.629 49.3,124.712 49.3,201.25c0,76.538 -16.883,143.847 -50.65,201.925c-33.767,58.079 -79.465,102.876 -137.093,134.392c-57.629,31.516 -121.56,47.274 -191.795,47.274Zm0,-108.054c44.122,0 85.543,-10.355 124.262,-31.065c38.719,-20.71 70.01,-51.776 93.872,-93.196c23.862,-41.421 35.793,-91.846 35.793,-151.275c0,-59.43 -11.706,-109.855 -35.117,-151.275c-23.412,-41.421 -54.027,-72.261 -91.846,-92.521c-37.819,-20.26 -78.789,-30.39 -122.911,-30.39c-45.022,0 -86.218,10.13 -123.586,30.39c-37.369,20.26 -67.308,51.1 -89.82,92.521c-22.511,41.421 -33.767,91.846 -33.767,151.275c0,60.33 11.03,111.205 33.091,152.626c22.061,41.421 51.551,72.261 88.469,92.521c36.918,20.26 77.439,30.39 121.56,30.39Z" style="fill:#fff;fill-rule:nonzero;"/><path d="M8415.084,977.557c90.045,0 162.981,27.239 218.809,81.716c55.828,54.477 83.742,133.041 83.742,235.692l0,436.267l-121.56,0l0,-418.708c0,-73.837 -18.459,-130.34 -55.378,-169.509c-36.918,-39.169 -87.343,-58.754 -151.275,-58.754c-64.832,0 -116.383,20.26 -154.652,60.78c-38.269,40.52 -57.404,99.499 -57.404,176.938l0,409.254l-122.911,0l0,-740.168l122.911,0l0,105.352c24.312,-37.819 57.404,-67.083 99.274,-87.794c41.871,-20.71 88.019,-31.065 138.444,-31.065Z" style="fill:#fff;fill-rule:nonzero;"/></g></svg>