<?xml version="1.0" encoding="UTF-8" standalone="no"?><!DOCTYPE svg PUBLIC "-//W3C//DTD SVG 1.1//EN" "http://www.w3.org/Graphics/SVG/1.1/DTD/svg11.dtd"><svg width="100%" height="100%" viewBox="0 0 4500 2500" version="1.1" xmlns="http://www.w3.org/2000/svg" xmlns:xlink="http://www.w3.org/1999/xlink" xml:space="preserve" xmlns:serif="http://www.serif.com/" style="fill-rule:evenodd;clip-rule:evenodd;stroke-linejoin:round;stroke-miterlimit:2;"><rect id="MicroPythonOS-logo-white-alpha--short" serif:id="MicroPythonOS-logo-white(alpha)-short" x="0" y="0" width="4500" height="2500" style="fill-opacity:0;"/><g><path d="M3314.607,1250c0,266.197 -216.118,482.316 -482.316,482.316c-266.197,0 -482.316,-216.118 -482.316,-482.316c0,-266.197 216.118,-482.316 482.316,-482.316c40.043,0 78.953,4.89 116.164,14.106c37.951,-18.526 93.314,-19.492 148.131,1.209c78.844,29.775 120.586,127.255 118.169,147.975c-2.417,20.72 -101.4,-53.656 -132.671,-23.653c-22.302,21.397 1.649,79.482 -8.74,92.671c-7.552,9.588 -35.575,-6.732 -53.592,-13.536c-49.592,-18.728 -87.797,-51.059 -106.648,-85.92c-25.976,-5.992 -53.028,-9.159 -80.813,-9.159c-197.929,0 -358.622,160.693 -358.622,358.622c0,197.929 160.693,358.622 358.622,358.622c197.929,0 358.622,-160.693 358.622,-358.622c0,-77.508 -24.434,-234.995 -3.819,-234.995c8.222,0 127.574,71.818 127.512,234.995Zm-243.774,-427.688c-10.041,9.634 -10.323,25.603 -0.63,35.639c9.693,10.036 25.715,10.363 35.756,0.729c10.041,-9.634 10.323,-25.603 0.63,-35.639c-9.693,-10.036 -25.715,-10.363 -35.756,-0.729Z" style="fill:#fff;"/><path d="M3722.576,1732.316c-62.234,0 -117.929,-11.049 -167.086,-33.147c-49.156,-22.098 -87.714,-52.764 -115.675,-91.999c-27.96,-39.235 -42.391,-84.557 -43.293,-135.968l131.233,0c4.51,44.195 22.774,81.401 54.793,111.616c32.019,30.215 78.695,45.323 140.027,45.323c58.627,0 104.851,-14.657 138.674,-43.97c33.823,-29.313 50.734,-66.97 50.734,-112.969c0,-36.078 -9.921,-65.391 -29.764,-87.94c-19.843,-22.549 -44.646,-39.686 -74.411,-51.411c-29.764,-11.725 -69.901,-24.353 -120.41,-37.882c-62.234,-16.235 -112.067,-32.47 -149.498,-48.705c-37.431,-16.235 -69.45,-41.715 -96.057,-76.44c-26.607,-34.725 -39.911,-81.401 -39.911,-140.027c0,-51.411 13.078,-96.959 39.235,-136.645c26.156,-39.686 62.911,-70.352 110.263,-91.999c47.352,-21.647 101.694,-32.47 163.027,-32.47c88.391,0 160.772,22.098 217.144,66.293c56.372,44.195 88.165,102.822 95.381,175.88l-135.292,0c-4.51,-36.078 -23.451,-67.871 -56.823,-95.381c-33.372,-27.509 -77.567,-41.264 -132.586,-41.264c-51.411,0 -93.351,13.304 -125.822,39.911c-32.47,26.607 -48.705,63.813 -48.705,111.616c0,34.274 9.696,62.234 29.088,83.881c19.392,21.647 43.293,38.107 71.705,49.382c28.411,11.274 68.322,24.127 119.733,38.558c62.234,17.137 112.292,34.048 150.174,50.734c37.882,16.686 70.352,42.391 97.41,77.116c27.058,34.725 40.588,81.852 40.588,141.38c0,45.999 -12.176,89.293 -36.529,129.88c-24.353,40.588 -60.43,73.509 -108.234,98.763c-47.803,25.254 -104.175,37.882 -169.115,37.882Z" style="fill:#fff;fill-rule:nonzero;"/><path d="M1420.061,767.684l0,964.632l-123.116,0l0,-719.292l-311.171,719.292l-86.587,0l-312.524,-720.686l0,720.686l-123.116,0l0,-964.632l132.586,0l346.347,797.354l346.347,-797.354l131.233,0Z" style="fill:#fff;fill-rule:nonzero;"/><path d="M2258.871,1050.015c0,80.271 -26.833,146.932 -80.499,199.985c-53.666,53.052 -135.517,79.579 -245.555,79.579l-181.291,0l0,402.737l-123.116,0l0,-964.632l304.407,0c106.43,0 187.379,26.296 242.849,78.887c55.47,52.591 83.205,120.406 83.205,203.445Zm-326.054,175.765c68.548,0 119.057,-15.224 151.527,-45.671c32.47,-30.447 48.705,-73.812 48.705,-130.094c0,-119.022 -66.744,-178.533 -200.232,-178.533l-181.291,0l0,354.298l181.291,0Z" style="fill:#fff;fill-rule:nonzero;"/></g></svg>